<svg xmlns="http://www.w3.org/2000/svg" viewBox="0 0 1200 675" role="img" aria-labelledby="title desc">
  <title id="title">Ray-Ban Display визуализация</title>
  <desc id="desc">Стиллизованные очки Ray-Ban с маршрутом на правой линзе.</desc>
  <defs>
    <linearGradient id="bg" x1="0%" y1="0%" x2="100%" y2="100%">
      <stop offset="0%" stop-color="#e1f0ff" />
      <stop offset="100%" stop-color="#becbe0" />
    </linearGradient>
    <radialGradient id="lens" cx="50%" cy="35%" r="70%">
      <stop offset="0%" stop-color="#9fb7d9" stop-opacity="0.65" />
      <stop offset="100%" stop-color="#0b1a2e" stop-opacity="0.75" />
    </radialGradient>
    <linearGradient id="frame" x1="0%" y1="0%" x2="100%" y2="100%">
      <stop offset="0%" stop-color="#222" />
      <stop offset="50%" stop-color="#2f2f2f" />
      <stop offset="100%" stop-color="#111" />
    </linearGradient>
  </defs>
  <rect width="1200" height="675" fill="url(#bg)" />
  <g transform="translate(100 160)">
    <path d="M155 55h690a120 120 0 0 1 120 120v40h-60v-40a80 80 0 0 0-80-80H215a80 80 0 0 0-80 80v40h-60v-40A120 120 0 0 1 155 55Z" fill="#fff" opacity="0.18" />
    <path d="M80 0h840a80 80 0 0 1 80 80v90c0 110-76 200-180 200-96 0-148-52-180-103-32 51-84 103-180 103-104 0-180-90-180-200V80A80 80 0 0 1 80 0Z" fill="url(#frame)" />
    <path d="M115 90h250a70 70 0 0 1 70 70v20c0 84-55 154-130 154s-130-70-130-154v-20a70 70 0 0 1 70-70Z" fill="url(#lens)" />
    <path d="M545 90h250a70 70 0 0 1 70 70v20c0 84-55 154-130 154s-130-70-130-154v-20a70 70 0 0 1 70-70Z" fill="url(#lens)" />
    <rect x="392" y="62" width="216" height="36" rx="18" fill="#0e0e0e" />
    <circle cx="420" cy="80" r="10" fill="#3f3f3f" />
    <circle cx="580" cy="80" r="10" fill="#3f3f3f" />
    <g transform="translate(600 130)">
      <circle cx="160" cy="90" r="70" fill="#0e1c33" opacity="0.55" />
      <path d="M100 100h120" stroke="#6cf5ff" stroke-width="2" stroke-dasharray="8 8" stroke-linecap="round" opacity="0.7" />
      <path d="M160 40c28 0 50 22 50 50s-22 50-50 50-50-22-50-50" fill="none" stroke="#6cf5ff" stroke-width="4" stroke-linecap="round" />
      <circle cx="160" cy="40" r="8" fill="#ff6a6a" />
      <circle cx="110" cy="90" r="8" fill="#7ad1ff" />
      <circle cx="210" cy="140" r="8" fill="#7ad1ff" />
      <path d="M110 90c30-22 50-40 50-40" stroke="#7ad1ff" stroke-width="3" stroke-linecap="round" />
      <path d="M160 90c20 20 30 40 50 50" stroke="#7ad1ff" stroke-width="3" stroke-linecap="round" />
    </g>
  </g>
</svg>
