<svg xmlns="http://www.w3.org/2000/svg" viewBox="0 0 1400 900" role="img" aria-labelledby="title desc">
  <title id="title">Ray-Ban Display — очки и браслет</title>
  <desc id="desc">Изометрическая иллюстрация очков Ray-Ban Display и браслета управления жестами.</desc>
  <defs>
    <linearGradient id="bg2" x1="0%" y1="0%" x2="100%" y2="100%">
      <stop offset="0%" stop-color="#d9e8f8" />
      <stop offset="100%" stop-color="#b3c2d8" />
    </linearGradient>
    <linearGradient id="frameDark" x1="0%" y1="0%" x2="100%" y2="100%">
      <stop offset="0%" stop-color="#272727" />
      <stop offset="50%" stop-color="#343434" />
      <stop offset="100%" stop-color="#1b1b1b" />
    </linearGradient>
    <radialGradient id="lensGlow" cx="30%" cy="30%" r="80%">
      <stop offset="0%" stop-color="#e7f3ff" stop-opacity="0.65" />
      <stop offset="100%" stop-color="#0d1f3a" stop-opacity="0.9" />
    </radialGradient>
    <linearGradient id="strap" x1="0%" y1="0%" x2="100%" y2="0%">
      <stop offset="0%" stop-color="#444" />
      <stop offset="100%" stop-color="#666" />
    </linearGradient>
    <linearGradient id="strapLight" x1="0%" y1="0%" x2="0%" y2="100%">
      <stop offset="0%" stop-color="#f5c597" />
      <stop offset="100%" stop-color="#a9784e" />
    </linearGradient>
  </defs>
  <rect width="1400" height="900" fill="url(#bg2)" />
  <g transform="translate(140 160)">
    <g transform="translate(80 0) rotate(-8 530 240)">
      <path d="M0 120c0-44 36-80 80-80h760c44 0 80 36 80 80v160c0 120-86 218-192 218-98 0-154-56-190-116-36 60-92 116-190 116-106 0-192-98-192-218Z" fill="url(#frameDark)" />
      <g transform="translate(70 90)">
        <path d="M0 40c0-48 38-86 86-86h246c48 0 86 38 86 86v34c0 108-70 196-156 196s-156-88-156-196Z" fill="url(#lensGlow)" opacity="0.92" />
        <path d="M396 40c0-48 38-86 86-86h246c48 0 86 38 86 86v34c0 108-70 196-156 196s-156-88-156-196Z" fill="url(#lensGlow)" opacity="0.92" />
        <path d="M300 18h102v24H300z" fill="#101820" opacity="0.7" />
      </g>
      <g transform="translate(425 160)">
        <circle cx="46" cy="36" r="10" fill="#ef8f4f" />
        <circle cx="86" cy="80" r="8" fill="#7dd0ff" />
        <path d="M46 36L86 80" stroke="#7dd0ff" stroke-width="4" stroke-linecap="round" />
        <path d="M86 80h60" stroke="#7dd0ff" stroke-width="3" stroke-linecap="round" stroke-dasharray="10 10" />
      </g>
    </g>
    <g transform="translate(380 420) rotate(-12)">
      <path d="M0 140c0-40 24-74 60-88l180-72c28-11 60-10 88 4l60 30c28 14 60 14 88 0l140-70c36-18 80-2 98 34l14 28c24 48 4 106-44 128l-296 136c-32 14-68 14-100 0l-142-64c-42-20-70-63-70-110Z" fill="url(#strap)" opacity="0.95" />
      <path d="M480 14c30-14 66-2 80 26l10 18c10 22 2 48-18 60l-90 52c-18 10-40 10-58 0l-80-46c-22-12-32-40-22-64l4-10c10-28 42-42 70-30l74 32c18 8 38 6 56-6Z" fill="url(#strapLight)" opacity="0.85" />
      <g fill="#eee" opacity="0.4">
        <rect x="420" y="80" width="24" height="82" rx="10" />
        <rect x="388" y="94" width="24" height="70" rx="10" />
        <rect x="356" y="108" width="24" height="58" rx="10" />
      </g>
    </g>
  </g>
</svg>
